<svg xmlns="http://www.w3.org/2000/svg" width="1102" height="600"><defs><linearGradient id="prefix__a" x1="0%" x2="100%" y1="0%" y2="100%"><stop offset="0%" stop-color="#FFF" stop-opacity=".5"/><stop offset="100%" stop-color="#FFF"/></linearGradient><linearGradient id="prefix__b" x1="80.848%" x2="18.996%" y1="100%" y2="0%"><stop offset="0%" stop-color="#DB9209"/><stop offset="100%" stop-color="#F1AD1E"/></linearGradient><linearGradient id="prefix__c" x1="15.38%" x2="111.151%" y1="-12.223%" y2="152.777%"><stop offset="0%" stop-color="#6F2396"/><stop offset="100%" stop-color="#FF3B00"/></linearGradient><linearGradient id="prefix__d" x1="80.928%" x2="22.248%" y1="100%" y2="0%"><stop offset="0%" stop-color="#174796"/><stop offset="100%" stop-color="#1D61CF"/></linearGradient><linearGradient id="prefix__e" x1="80.848%" x2="18.996%" y1="100%" y2="0%"><stop offset="0%" stop-color="#232226"/><stop offset="100%" stop-color="#46454D"/></linearGradient><linearGradient id="prefix__f" x1="-41.384%" x2="102.001%" y1="-43.915%" y2="101%"><stop offset="0%" stop-color="#3FA0F1"/><stop offset="100%" stop-color="#295ADA"/></linearGradient><linearGradient id="prefix__g" x1="102%" x2="0%" y1="101%" y2="0%"><stop offset="0%" stop-color="#3E90E8"/><stop offset="100%" stop-color="#2775CA"/></linearGradient><linearGradient id="prefix__h" x1="15.38%" x2="111.151%" y1="-12.223%" y2="152.777%"><stop offset="0%" stop-color="#00B424"/><stop offset="100%" stop-color="#06DA30"/></linearGradient><linearGradient id="prefix__i" x1="-12.607%" x2="115.111%" y1="0%" y2="101%"><stop offset="0%" stop-color="#1ABC9C"/><stop offset="100%" stop-color="#546979"/></linearGradient></defs><g fill="none" fill-rule="evenodd"><path d="M250 300 550 0l300 300-300 300z" opacity=".02"/><path fill="url(#prefix__a)" d="m669 300 150-150 150 150-150 150z" opacity=".02" transform="rotate(-180 826.5 300)"/><path fill="url(#prefix__a)" d="m101 300 150-150 150 150-150 150z" opacity=".02" transform="rotate(-180 258.5 300)"/><path fill="url(#prefix__a)" d="m0 300 100-100 100 100-100 100z" opacity=".05" transform="translate(15)"/><path fill="url(#prefix__a)" d="M464.995 227.995h140v140h-140z" opacity=".05" transform="rotate(-45 542.495 279.888)"/><path fill="url(#prefix__a)" d="m872 300 100-100 100 100-100 100zm-138-1 20-20 20 20-20 20zm-436 0 20-20 20 20-20 20zM88 62l12-12 12 12-12 12zm435 0 12-12 12 12-12 12zm0 476 12-12 12 12-12 12zM960 62l12-12 12 12-12 12zm0 476 12-12 12 12-12 12zm-872 0 12-12 12 12-12 12z" opacity=".05" transform="translate(15)"/><path fill="url(#prefix__b)" d="m6.6 14.346 3.996 2.308c.371.214.6.61.6 1.039v4.614a1.2 1.2 0 0 1-.6 1.04L6.6 25.653a1.2 1.2 0 0 1-1.2 0l-3.996-2.308a1.2 1.2 0 0 1-.6-1.039v-4.614a1.2 1.2 0 0 1 .6-1.04L5.4 14.347a1.2 1.2 0 0 1 1.2 0z" transform="translate(0 96)"/><path fill="url(#prefix__c)" fill-rule="nonzero" d="m6.6 382.346 3.996 2.308c.371.214.6.61.6 1.039v4.614a1.2 1.2 0 0 1-.6 1.04L6.6 393.653a1.2 1.2 0 0 1-1.2 0l-3.996-2.308a1.2 1.2 0 0 1-.6-1.039v-4.614a1.2 1.2 0 0 1 .6-1.04l3.996-2.307a1.2 1.2 0 0 1 1.2 0z" transform="translate(0 96)"/><path fill="url(#prefix__d)" d="m442.6 14.346 3.996 2.308c.371.214.6.61.6 1.039v4.614a1.2 1.2 0 0 1-.6 1.04l-3.996 2.307a1.2 1.2 0 0 1-1.2 0l-3.996-2.308a1.2 1.2 0 0 1-.6-1.039v-4.614a1.2 1.2 0 0 1 .6-1.04l3.996-2.307a1.2 1.2 0 0 1 1.2 0z" transform="translate(0 96)"/><path fill="url(#prefix__e)" d="m442.6 382.346 3.996 2.308c.371.214.6.61.6 1.039v4.614a1.2 1.2 0 0 1-.6 1.04l-3.996 2.307a1.2 1.2 0 0 1-1.2 0l-3.996-2.308a1.2 1.2 0 0 1-.6-1.039v-4.614a1.2 1.2 0 0 1 .6-1.04l3.996-2.307a1.2 1.2 0 0 1 1.2 0z" transform="translate(0 96)"/><path fill="url(#prefix__f)" fill-rule="nonzero" d="m660.6 14.346 3.996 2.308c.371.214.6.61.6 1.039v4.614a1.2 1.2 0 0 1-.6 1.04l-3.996 2.307a1.2 1.2 0 0 1-1.2 0l-3.996-2.308a1.2 1.2 0 0 1-.6-1.039v-4.614a1.2 1.2 0 0 1 .6-1.04l3.996-2.307a1.2 1.2 0 0 1 1.2 0z" transform="translate(0 96)"/><path fill="url(#prefix__g)" d="m660.6 382.346 3.996 2.308c.371.214.6.61.6 1.039v4.614a1.2 1.2 0 0 1-.6 1.04l-3.996 2.307a1.2 1.2 0 0 1-1.2 0l-3.996-2.308a1.2 1.2 0 0 1-.6-1.039v-4.614a1.2 1.2 0 0 1 .6-1.04l3.996-2.307a1.2 1.2 0 0 1 1.2 0z" transform="translate(0 96)"/><path fill="url(#prefix__h)" fill-rule="nonzero" d="m1096.6 14.346 3.996 2.308c.371.214.6.61.6 1.039v4.614a1.2 1.2 0 0 1-.6 1.04l-3.996 2.307a1.2 1.2 0 0 1-1.2 0l-3.996-2.308a1.2 1.2 0 0 1-.6-1.039v-4.614a1.2 1.2 0 0 1 .6-1.04l3.996-2.307a1.2 1.2 0 0 1 1.2 0z" transform="translate(0 96)"/><path fill="url(#prefix__i)" fill-rule="nonzero" d="m1096.6 382.346 3.996 2.308c.371.214.6.61.6 1.039v4.614a1.2 1.2 0 0 1-.6 1.04l-3.996 2.307a1.2 1.2 0 0 1-1.2 0l-3.996-2.308a1.2 1.2 0 0 1-.6-1.039v-4.614a1.2 1.2 0 0 1 .6-1.04l3.996-2.307a1.2 1.2 0 0 1 1.2 0z" transform="translate(0 96)"/></g></svg>