<svg width="923" height="116" fill="none" xmlns="http://www.w3.org/2000/svg"><g filter="url(#filter0_d_1_241)"><path d="M362.383 13h33.234c5.349 0 7.289.557 9.244 1.603a10.902 10.902 0 014.536 4.536c1.046 1.955 1.603 3.895 1.603 9.244v33.234c0 5.349-.557 7.289-1.603 9.244a10.902 10.902 0 01-4.536 4.536c-1.955 1.046-3.895 1.603-9.244 1.603h-33.234c-5.349 0-7.289-.557-9.244-1.603a10.902 10.902 0 01-4.536-4.536c-1.046-1.955-1.603-3.895-1.603-9.244V28.383c0-5.349.557-7.289 1.603-9.244a10.902 10.902 0 014.536-4.536c1.955-1.046 3.895-1.603 9.244-1.603z" fill="#000"/></g><path d="M362.383 13h33.234c5.349 0 7.289.557 9.244 1.603a10.902 10.902 0 014.536 4.536c1.046 1.955 1.603 3.895 1.603 9.244v33.234c0 5.349-.557 7.289-1.603 9.244a10.902 10.902 0 01-4.536 4.536c-1.955 1.046-3.895 1.603-9.244 1.603h-33.234c-5.349 0-7.289-.557-9.244-1.603a10.902 10.902 0 01-4.536-4.536c-1.046-1.955-1.603-3.895-1.603-9.244V28.383c0-5.349.557-7.289 1.603-9.244a10.902 10.902 0 014.536-4.536c1.955-1.046 3.895-1.603 9.244-1.603z" fill="url(#paint0_linear_1_241)"/><path opacity=".5" clip-rule="evenodd" d="M363.336 37.85a9.161 9.161 0 00-2.535 11.103 9.16 9.16 0 002.521 3.185l4.813 3.875.078.079 3.167 3.985a9.163 9.163 0 0014.315.042l3.787-4.707.079-.078 4.03-3.205a9.159 9.159 0 002.563-11.127 9.155 9.155 0 00-2.531-3.193l-4.569-3.667-.078-.079-3.311-4.153a9.164 9.164 0 00-14.33-.002l-3.345 4.194-.078.078-4.576 3.67v0z" stroke="#fff"/><mask id="a" style="mask-type:alpha" maskUnits="userSpaceOnUse" x="362" y="29" width="33" height="32"><path d="M367.3 56.2c-6.186-6.185-6.186-16.215 0-22.4 6.185-6.186 16.215-6.186 22.4 0 6.186 6.185 6.186 16.215 0 22.4-6.185 6.186-16.215 6.186-22.4 0zm5.6-5.6a7.921 7.921 0 0012.981-2.531 7.93 7.93 0 00-.03-6.099 7.917 7.917 0 00-7.334-4.833 7.922 7.922 0 00-7.88 7.88A7.916 7.916 0 00372.9 50.6z" fill="#fff"/></mask><g mask="url(#a)" fill="#fff"><path opacity=".3" d="M367.3 56.2c-6.186-6.185-6.186-16.215 0-22.4 6.185-6.186 16.215-6.186 22.4 0 6.186 6.185 6.186 16.215 0 22.4-6.185 6.186-16.215 6.186-22.4 0zm5.6-5.6a7.921 7.921 0 0012.981-2.531 7.93 7.93 0 00-.03-6.099 7.917 7.917 0 00-7.334-4.833 7.922 7.922 0 00-7.88 7.88A7.916 7.916 0 00372.9 50.6z"/><path fill-rule="evenodd" clip-rule="evenodd" d="M378.5 40.927l9.164-9.164 4.073 4.073L382.573 45l9.164 9.164-4.073 4.073-9.164-9.164-9.164 9.164-4.073-4.073L374.427 45l-9.164-9.164 4.073-4.073 9.164 9.164z"/></g><g filter="url(#filter1_d_1_241)"><path d="M201.383 13h33.234c5.349 0 7.289.557 9.244 1.603a10.902 10.902 0 014.536 4.536c1.046 1.955 1.603 3.895 1.603 9.244v33.234c0 5.349-.557 7.289-1.603 9.244a10.902 10.902 0 01-4.536 4.536c-1.955 1.046-3.895 1.603-9.244 1.603h-33.234c-5.349 0-7.289-.557-9.244-1.603a10.902 10.902 0 01-4.536-4.536c-1.046-1.955-1.603-3.895-1.603-9.244V28.383c0-5.349.557-7.289 1.603-9.244a10.902 10.902 0 014.536-4.536c1.955-1.046 3.895-1.603 9.244-1.603z" fill="#000"/></g><path d="M201.383 13h33.234c5.349 0 7.289.557 9.244 1.603a10.902 10.902 0 014.536 4.536c1.046 1.955 1.603 3.895 1.603 9.244v33.234c0 5.349-.557 7.289-1.603 9.244a10.902 10.902 0 01-4.536 4.536c-1.955 1.046-3.895 1.603-9.244 1.603h-33.234c-5.349 0-7.289-.557-9.244-1.603a10.902 10.902 0 01-4.536-4.536c-1.046-1.955-1.603-3.895-1.603-9.244V28.383c0-5.349.557-7.289 1.603-9.244a10.902 10.902 0 014.536-4.536c1.955-1.046 3.895-1.603 9.244-1.603z" fill="url(#paint1_linear_1_241)"/><path d="M226.49 38.445H230v18.1h-.024L218 62l-11.976-5.454H206V38.445h3.512v-2.541c0-4.358 3.81-7.904 8.49-7.904 4.678 0 8.487 3.546 8.487 7.904v2.54l.001.001zm-1.32 15.09V42.693h-14.34v10.844l7.17 3.256 7.17-3.257v-.001zm-11.303-17.63v2.54h8.268v-2.54c0-2.017-1.855-3.658-4.133-3.658-2.28 0-4.135 1.64-4.135 3.658z" fill="#fff"/><path opacity=".5" d="M218 51a2 2 0 100-4 2 2 0 000 4z" fill="#fff"/><g filter="url(#filter2_d_1_241)"><path d="M41.383 13h33.234c5.349 0 7.289.557 9.244 1.603a10.904 10.904 0 014.536 4.536C89.443 21.094 90 23.034 90 28.383v33.234c0 5.349-.557 7.289-1.603 9.244a10.904 10.904 0 01-4.536 4.536C81.906 76.443 79.966 77 74.617 77H41.383c-5.349 0-7.289-.557-9.244-1.603a10.904 10.904 0 01-4.536-4.536C26.557 68.906 26 66.966 26 61.617V28.383c0-5.349.557-7.289 1.603-9.244a10.904 10.904 0 014.536-4.536C34.094 13.557 36.034 13 41.383 13z" fill="#000"/></g><path d="M41.383 13h33.234c5.349 0 7.289.557 9.244 1.603a10.904 10.904 0 014.536 4.536C89.443 21.094 90 23.034 90 28.383v33.234c0 5.349-.557 7.289-1.603 9.244a10.904 10.904 0 01-4.536 4.536C81.906 76.443 79.966 77 74.617 77H41.383c-5.349 0-7.289-.557-9.244-1.603a10.904 10.904 0 01-4.536-4.536C26.557 68.906 26 66.966 26 61.617V28.383c0-5.349.557-7.289 1.603-9.244a10.904 10.904 0 014.536-4.536C34.094 13.557 36.034 13 41.383 13z" fill="url(#paint2_linear_1_241)"/><path fill-rule="evenodd" clip-rule="evenodd" d="M58 62c-9.32-4.663-13.986-11.07-13.998-19.222-.003-1.565-.003-4.13 0-7.696L58 30v32z" fill="#fff"/><path opacity=".5" fill-rule="evenodd" clip-rule="evenodd" d="M58 52.172v-6.344l11.612-11.612 2.386.866.002 3.09-14 14zm0 5.656L71.969 43.86C71.56 51.499 66.904 57.546 58 62v-4.172zm0-17.656V30l7.462 2.71L58 40.171v.001z" fill="#fff"/><g filter="url(#filter3_d_1_241)"><path d="M522.383 13h33.234c5.349 0 7.289.557 9.244 1.603a10.902 10.902 0 014.536 4.536c1.046 1.955 1.603 3.895 1.603 9.244v33.234c0 5.349-.557 7.289-1.603 9.244a10.902 10.902 0 01-4.536 4.536c-1.955 1.046-3.895 1.603-9.244 1.603h-33.234c-5.349 0-7.289-.557-9.244-1.603a10.902 10.902 0 01-4.536-4.536c-1.046-1.955-1.603-3.895-1.603-9.244V28.383c0-5.349.557-7.289 1.603-9.244a10.902 10.902 0 014.536-4.536c1.955-1.046 3.895-1.603 9.244-1.603z" fill="#000"/></g><path d="M522.383 13h33.234c5.349 0 7.289.557 9.244 1.603a10.902 10.902 0 014.536 4.536c1.046 1.955 1.603 3.895 1.603 9.244v33.234c0 5.349-.557 7.289-1.603 9.244a10.902 10.902 0 01-4.536 4.536c-1.955 1.046-3.895 1.603-9.244 1.603h-33.234c-5.349 0-7.289-.557-9.244-1.603a10.902 10.902 0 01-4.536-4.536c-1.046-1.955-1.603-3.895-1.603-9.244V28.383c0-5.349.557-7.289 1.603-9.244a10.902 10.902 0 014.536-4.536c1.955-1.046 3.895-1.603 9.244-1.603z" fill="url(#paint3_linear_1_241)"/><path opacity=".2" d="M534 57c9.389 0 17-7.611 17-17s-7.611-17-17-17-17 7.611-17 17 7.611 17 17 17z" fill="#fff"/><path opacity=".3" d="M534 50c5.523 0 10-4.477 10-10s-4.477-10-10-10-10 4.477-10 10 4.477 10 10 10z" fill="#fff"/><path d="M534 45a5 5 0 100-10 5 5 0 000 10z" fill="#fff"/><g filter="url(#filter4_d_1_241)"><path d="M547.749 49.507l10.443 10.443-4.242 4.242-10.443-10.443-3.678 9.008-6.364-23.292 23.292 6.364-9.008 3.678z" fill="#000"/></g><path d="M547.749 49.507l10.443 10.443-4.242 4.242-10.443-10.443-3.678 9.008-6.364-23.292 23.292 6.364-9.008 3.678z" fill="#fff"/><g filter="url(#filter5_d_1_241)"><path d="M682.383 13h33.234c5.349 0 7.289.557 9.244 1.603a10.902 10.902 0 014.536 4.536c1.046 1.955 1.603 3.895 1.603 9.244v33.234c0 5.349-.557 7.289-1.603 9.244a10.902 10.902 0 01-4.536 4.536c-1.955 1.046-3.895 1.603-9.244 1.603h-33.234c-5.349 0-7.289-.557-9.244-1.603a10.902 10.902 0 01-4.536-4.536c-1.046-1.955-1.603-3.895-1.603-9.244V28.383c0-5.349.557-7.289 1.603-9.244a10.902 10.902 0 014.536-4.536c1.955-1.046 3.895-1.603 9.244-1.603z" fill="#000"/></g><path d="M682.383 13h33.234c5.349 0 7.289.557 9.244 1.603a10.902 10.902 0 014.536 4.536c1.046 1.955 1.603 3.895 1.603 9.244v33.234c0 5.349-.557 7.289-1.603 9.244a10.902 10.902 0 01-4.536 4.536c-1.955 1.046-3.895 1.603-9.244 1.603h-33.234c-5.349 0-7.289-.557-9.244-1.603a10.902 10.902 0 01-4.536-4.536c-1.046-1.955-1.603-3.895-1.603-9.244V28.383c0-5.349.557-7.289 1.603-9.244a10.902 10.902 0 014.536-4.536c1.955-1.046 3.895-1.603 9.244-1.603z" fill="url(#paint4_linear_1_241)"/><path fill-rule="evenodd" clip-rule="evenodd" d="M699 59l-12.438-11.813C684.91 45.617 684 43.53 684 41.31c0-2.22.909-4.306 2.563-5.876 1.653-1.57 3.85-2.435 6.187-2.435 2.338 0 4.534 1.631 6.188 3.201l.062.06V59z" fill="#fff"/><path opacity=".5" fill-rule="evenodd" clip-rule="evenodd" d="M699 48.172v-6.344l8.542-8.541a8.825 8.825 0 014.047 2.296L699 48.173zm0 5.656l14.697-14.697c.2.702.303 1.433.303 2.18 0 2.22-.91 4.306-2.563 5.876L699 59v-5.172z" fill="#fff"/><g filter="url(#filter6_d_1_241)"><rect x="827" y="13" width="64" height="64" rx="12" fill="url(#paint5_linear_1_241)"/></g><path opacity=".35" fill-rule="evenodd" clip-rule="evenodd" d="M858.808 26c-.67 0-1.341.173-1.941.52l-12.926 7.463A3.882 3.882 0 00842 37.346v14.927c0 .66.168 1.296.473 1.856l5.615-3.138a12.361 12.361 0 01-1.703-6.282c0-6.861 5.562-12.423 12.423-12.423V26z" fill="#fff"/><path fill-rule="evenodd" clip-rule="evenodd" d="M842.473 54.129a3.875 3.875 0 001.468 1.505l12.926 7.463a3.88 3.88 0 003.881 0l12.927-7.463a3.883 3.883 0 001.468-1.506l-5.616-3.138a12.416 12.416 0 01-10.719 6.141 12.418 12.418 0 01-10.72-6.14l-5.615 3.138z" fill="#fff" fill-opacity=".5"/><path fill-rule="evenodd" clip-rule="evenodd" d="M875.143 54.128a3.88 3.88 0 00.472-1.856V37.345a3.881 3.881 0 00-1.94-3.361l-12.927-7.464c-.6-.347-1.27-.52-1.94-.52v6.285c6.861 0 12.423 5.562 12.423 12.423 0 2.292-.621 4.44-1.704 6.282l5.616 3.138z" fill="#fff" fill-opacity=".85"/><path d="M860.035 53.232a.574.574 0 01-.573.572h-1.144a.573.573 0 01-.572-.572V51.43c-2.503-.344-3.718-1.731-4.046-3.647a.527.527 0 01.528-.614h1.301c.272 0 .501.199.558.458.244 1.128.901 2.001 2.904 2.001 1.471 0 2.529-.83 2.529-2.06 0-1.229-.614-1.701-2.787-2.058-3.204-.43-4.72-1.402-4.72-3.905 0-1.93 1.474-3.446 3.733-3.76v-1.773c0-.315.257-.572.572-.572h1.144c.314 0 .573.257.573.572v1.815c1.843.33 3.017 1.373 3.403 3.119a.527.527 0 01-.529.628h-1.203a.566.566 0 01-.543-.415c-.328-1.1-1.115-1.586-2.488-1.586-1.516 0-2.302.728-2.302 1.758 0 1.087.443 1.63 2.774 1.96 3.146.429 4.776 1.33 4.776 4.003 0 2.031-1.516 3.676-3.875 4.047v1.83h-.015.002z" fill="#fff"/><defs><filter id="filter0_d_1_241" x="321" y="0" width="116" height="116" filterUnits="userSpaceOnUse" color-interpolation-filters="sRGB"><feFlood flood-opacity="0" result="BackgroundImageFix"/><feColorMatrix in="SourceAlpha" values="0 0 0 0 0 0 0 0 0 0 0 0 0 0 0 0 0 0 127 0" result="hardAlpha"/><feOffset dy="13"/><feGaussianBlur stdDeviation="13"/><feColorMatrix values="0 0 0 0 0.513726 0 0 0 0 0.282353 0 0 0 0 0.501961 0 0 0 0.35 0"/><feBlend in2="BackgroundImageFix" result="effect1_dropShadow_1_241"/><feBlend in="SourceGraphic" in2="effect1_dropShadow_1_241" result="shape"/></filter><filter id="filter1_d_1_241" x="160" y="0" width="116" height="116" filterUnits="userSpaceOnUse" color-interpolation-filters="sRGB"><feFlood flood-opacity="0" result="BackgroundImageFix"/><feColorMatrix in="SourceAlpha" values="0 0 0 0 0 0 0 0 0 0 0 0 0 0 0 0 0 0 127 0" result="hardAlpha"/><feOffset dy="13"/><feGaussianBlur stdDeviation="13"/><feColorMatrix values="0 0 0 0 0.415686 0 0 0 0 0.219608 0 0 0 0 1 0 0 0 0.35 0"/><feBlend in2="BackgroundImageFix" result="effect1_dropShadow_1_241"/><feBlend in="SourceGraphic" in2="effect1_dropShadow_1_241" result="shape"/></filter><filter id="filter2_d_1_241" x="0" y="0" width="116" height="116" filterUnits="userSpaceOnUse" color-interpolation-filters="sRGB"><feFlood flood-opacity="0" result="BackgroundImageFix"/><feColorMatrix in="SourceAlpha" values="0 0 0 0 0 0 0 0 0 0 0 0 0 0 0 0 0 0 127 0" result="hardAlpha"/><feOffset dy="13"/><feGaussianBlur stdDeviation="13"/><feColorMatrix values="0 0 0 0 0.333333 0 0 0 0 0.121569 0 0 0 0 0.862745 0 0 0 0.3 0"/><feBlend in2="BackgroundImageFix" result="effect1_dropShadow_1_241"/><feBlend in="SourceGraphic" in2="effect1_dropShadow_1_241" result="shape"/></filter><filter id="filter3_d_1_241" x="481" y="0" width="116" height="116" filterUnits="userSpaceOnUse" color-interpolation-filters="sRGB"><feFlood flood-opacity="0" result="BackgroundImageFix"/><feColorMatrix in="SourceAlpha" values="0 0 0 0 0 0 0 0 0 0 0 0 0 0 0 0 0 0 127 0" result="hardAlpha"/><feOffset dy="13"/><feGaussianBlur stdDeviation="13"/><feColorMatrix values="0 0 0 0 0.27451 0 0 0 0 0.490196 0 0 0 0 0.956863 0 0 0 0.25 0"/><feBlend in2="BackgroundImageFix" result="effect1_dropShadow_1_241"/><feBlend in="SourceGraphic" in2="effect1_dropShadow_1_241" result="shape"/></filter><filter id="filter4_d_1_241" x="529.465" y="35.465" width="32.727" height="32.727" filterUnits="userSpaceOnUse" color-interpolation-filters="sRGB"><feFlood flood-opacity="0" result="BackgroundImageFix"/><feColorMatrix in="SourceAlpha" values="0 0 0 0 0 0 0 0 0 0 0 0 0 0 0 0 0 0 127 0" result="hardAlpha"/><feOffset/><feGaussianBlur stdDeviation="2"/><feColorMatrix values="0 0 0 0 0.305882 0 0 0 0 0.458824 0 0 0 0 0.952941 0 0 0 0.6 0"/><feBlend in2="BackgroundImageFix" result="effect1_dropShadow_1_241"/><feBlend in="SourceGraphic" in2="effect1_dropShadow_1_241" result="shape"/></filter><filter id="filter5_d_1_241" x="641" y="0" width="116" height="116" filterUnits="userSpaceOnUse" color-interpolation-filters="sRGB"><feFlood flood-opacity="0" result="BackgroundImageFix"/><feColorMatrix in="SourceAlpha" values="0 0 0 0 0 0 0 0 0 0 0 0 0 0 0 0 0 0 127 0" result="hardAlpha"/><feOffset dy="13"/><feGaussianBlur stdDeviation="13"/><feColorMatrix values="0 0 0 0 0.027451 0 0 0 0 0.494118 0 0 0 0 0.709804 0 0 0 0.3 0"/><feBlend in2="BackgroundImageFix" result="effect1_dropShadow_1_241"/><feBlend in="SourceGraphic" in2="effect1_dropShadow_1_241" result="shape"/></filter><filter id="filter6_d_1_241" x="801" y="0" width="116" height="116" filterUnits="userSpaceOnUse" color-interpolation-filters="sRGB"><feFlood flood-opacity="0" result="BackgroundImageFix"/><feColorMatrix in="SourceAlpha" values="0 0 0 0 0 0 0 0 0 0 0 0 0 0 0 0 0 0 127 0" result="hardAlpha"/><feOffset dy="13"/><feGaussianBlur stdDeviation="13"/><feColorMatrix values="0 0 0 0 0.00392157 0 0 0 0 0.847059 0 0 0 0 0.913725 0 0 0 0.18 0"/><feBlend in2="BackgroundImageFix" result="effect1_dropShadow_1_241"/><feBlend in="SourceGraphic" in2="effect1_dropShadow_1_241" result="shape"/></filter><linearGradient id="paint0_linear_1_241" x1="411" y1="77" x2="347" y2="13" gradientUnits="userSpaceOnUse"><stop stop-color="#602A52"/><stop offset="1" stop-color="#C27ED5"/></linearGradient><linearGradient id="paint1_linear_1_241" x1="250" y1="77" x2="186" y2="13" gradientUnits="userSpaceOnUse"><stop stop-color="#5C26FF"/><stop offset="1" stop-color="#8C66FF"/></linearGradient><linearGradient id="paint2_linear_1_241" x1="90" y1="77" x2="26" y2="13" gradientUnits="userSpaceOnUse"><stop stop-color="#420BE6"/><stop offset="1" stop-color="#A16BB3"/></linearGradient><linearGradient id="paint3_linear_1_241" x1="571" y1="77" x2="507" y2="13" gradientUnits="userSpaceOnUse"><stop stop-color="#556FF2"/><stop offset="1" stop-color="#00BFFF"/></linearGradient><linearGradient id="paint4_linear_1_241" x1="667" y1="13" x2="733.561" y2="104.894" gradientUnits="userSpaceOnUse"><stop stop-color="#11AAE2"/><stop offset="1" stop-color="#016197"/></linearGradient><linearGradient id="paint5_linear_1_241" x1="827" y1="45" x2="891" y2="45" gradientUnits="userSpaceOnUse"><stop stop-color="#00E3F5"/><stop offset="1" stop-color="#00858F"/></linearGradient></defs></svg>